<svg width="32" height="32" viewBox="0 0 32 32" fill="none" xmlns="http://www.w3.org/2000/svg">
<path d="M9.79387 24.7544C9.15103 24.7544 8.53535 24.4798 8.10981 24.003L1.98926 17.2033C1.21061 16.3372 1.21061 15.0334 1.98926 14.1702L8.10981 7.36761C8.51423 6.91792 9.06954 6.65234 9.67616 6.62216C9.71842 6.62216 9.76369 6.61914 9.80896 6.61914C10.3613 6.61914 10.8954 6.82437 11.3119 7.20162L11.4477 7.32536V7.33743C12.2475 8.18549 12.2747 9.52248 11.4809 10.4068L6.72454 15.6913L11.4809 20.9759C12.3169 21.9054 12.2415 23.342 11.3119 24.178C10.8954 24.5522 10.3582 24.7605 9.79689 24.7605L9.79387 24.7544Z" fill="white"/>
<path d="M9.80659 7.03184C10.2593 7.03184 10.6939 7.20085 11.0349 7.50869C11.7955 8.19378 11.8558 9.37081 11.1738 10.1313L6.16987 15.6905L11.1738 21.2467C11.8588 22.0073 11.7955 23.1843 11.0349 23.8694C10.6939 24.1772 10.2533 24.3462 9.79452 24.3462C9.26938 24.3462 8.76537 24.1229 8.41528 23.7306L2.29473 16.931C1.65793 16.2217 1.65793 15.1533 2.29473 14.4471L8.41528 7.6445C8.74727 7.2763 9.20299 7.059 9.69794 7.03486C9.73416 7.03486 9.77037 7.03184 9.80961 7.03184M9.80961 6.21094C9.75528 6.21094 9.70398 6.21094 9.64965 6.21697C8.94042 6.25319 8.28551 6.56706 7.80866 7.09824L1.68811 13.9009C0.77063 14.921 0.77063 16.4601 1.68811 17.4833L7.80866 24.2829C8.31267 24.8472 9.04001 25.1702 9.79754 25.1702C10.4585 25.1702 11.0953 24.9257 11.5872 24.482C12.6828 23.4952 12.7733 21.799 11.7864 20.7005L7.27749 15.6905L11.7864 10.6806C12.2633 10.1495 12.5077 9.46437 12.4685 8.74909C12.4383 8.16662 12.224 7.62337 11.8588 7.18274V7.14351L11.5872 6.89905C11.0953 6.4554 10.4645 6.21094 9.80961 6.21094Z" fill="white"/>
<path d="M21.9842 6C22.5643 6 23.1185 6.20683 23.5584 6.58301C23.792 6.72016 24.0064 6.8921 24.1912 7.09668L30.3113 13.8994C31.2287 14.9224 31.2286 16.4614 30.3113 17.4814L24.1912 24.2842C23.6872 24.8455 22.9595 25.1689 22.2019 25.1689C21.541 25.1689 20.9068 24.9241 20.4119 24.4805C19.3137 23.4906 19.2261 21.7947 20.2127 20.6992L24.7224 15.6895L21.6971 12.3301L16.7215 17.7734C16.2627 18.2714 15.6132 18.5547 14.9402 18.5547C14.5328 18.5547 14.1255 18.4492 13.7664 18.25C13.5945 18.1565 13.4376 18.0419 13.2928 17.9092C12.3119 17.0008 12.2516 15.4642 13.157 14.4863L20.2039 6.77832C20.6595 6.28351 21.3083 6.00008 21.9842 6Z" fill="white"/>
</svg>
